<svg xmlns="http://www.w3.org/2000/svg" viewBox="0 0 900 560">
    <rect width="900" height="560" rx="34" fill="#fff8fb"/>
    <rect x="28" y="28" width="844" height="504" rx="28" fill="#ffffff" stroke="#eadfe6" stroke-width="4"/>
    <text x="58" y="82" font-family="Arial, sans-serif" font-size="34" font-weight="700" fill="#2b2630">Chest Press Setup</text>
    <text x="58" y="116" font-family="Arial, sans-serif" font-size="20" fill="#77717b">Bench centered inside the M1; handles aligned with mid-chest.</text>
    <rect x="76" y="160" width="290" height="300" rx="20" fill="#f2edf0" stroke="#cf4f89" stroke-width="5"/>
    <line x1="120" y1="190" x2="120" y2="430" stroke="#36313a" stroke-width="14"/>
    <line x1="322" y1="190" x2="322" y2="430" stroke="#36313a" stroke-width="14"/>
    <line x1="120" y1="200" x2="322" y2="200" stroke="#36313a" stroke-width="14"/>
    <text x="221" y="485" text-anchor="middle" font-family="Arial" font-size="22" font-weight="700" fill="#2b2630">RitFit M1</text>
    <rect x="415" y="350" width="230" height="42" rx="18" fill="#4b4650"/>
    <line x1="470" y1="390" x2="450" y2="458" stroke="#4b4650" stroke-width="12"/>
    <line x1="590" y1="390" x2="610" y2="458" stroke="#4b4650" stroke-width="12"/>
    <text x="530" y="490" text-anchor="middle" font-family="Arial" font-size="21" font-weight="700" fill="#2b2630">Bench: flat</text>
    <circle cx="690" cy="225" r="34" fill="#efb6ce"/>
    <line x1="690" y1="260" x2="690" y2="355" stroke="#b64b7d" stroke-width="14"/>
    <line x1="690" y1="290" x2="635" y2="325" stroke="#b64b7d" stroke-width="12"/>
    <line x1="690" y1="290" x2="745" y2="325" stroke="#b64b7d" stroke-width="12"/>
    <line x1="690" y1="355" x2="660" y2="430" stroke="#b64b7d" stroke-width="12"/>
    <line x1="690" y1="355" x2="720" y2="430" stroke="#b64b7d" stroke-width="12"/>
    <text x="690" y="478" text-anchor="middle" font-family="Arial" font-size="21" font-weight="700" fill="#2b2630">Sit tall</text>
    <rect x="390" y="150" width="210" height="58" rx="16" fill="#fdeaf3"/>
    <text x="495" y="186" text-anchor="middle" font-family="Arial" font-size="20" font-weight="700" fill="#9f2f65">Cable height: chest</text>
    <path d="M635 325 C590 305 555 300 515 305" fill="none" stroke="#cf4f89" stroke-width="9" marker-end="url(#a)"/><defs><marker id="a" markerWidth="10" markerHeight="10" refX="8" refY="3" orient="auto"><path d="M0,0 L0,6 L9,3 z" fill="#cf4f89"/></marker></defs>
    </svg>